<svg width="200" height="200" xmlns="http://www.w3.org/2000/svg">

 <g>
  <title>background</title>
  <rect fill="none" id="canvas_background" height="402" width="582" y="-1" x="-1"/>
 </g>
 <g>
  <title>Layer 1</title>
  <path id="svg_1" d="m164.3,95.2l-9.7,0c-7.1,0 -13,5.8 -13,13l0,8.9c0,2.5 -2,4.5 -4.5,4.5c-2.5,0 -4.5,-2 -4.5,-4.5l0,-75c0,-7.8 -6.3,-14.1 -14.1,-14.1c-7.8,0 -14.1,6.3 -14.1,14.1l0,115.8c0,2.5 -2,4.5 -4.5,4.5s-4.5,-2 -4.5,-4.5l0,-92.3c0,-7.8 -6.3,-14.1 -14.1,-14.1c-7.8,0 -14.1,6.3 -14.1,14.1l0,51.1c0,2.5 -1.8,4.7 -4,4.9c-1.3,0.1 -2.5,-0.3 -3.5,-1.1c-1,-0.9 -1.5,-2 -1.5,-3.3l0,-8.9c0,-7.1 -5.8,-13 -13,-13l-9.7,0c-2.7,0 -4.8,2.1 -4.8,4.8c0,2.7 2.1,4.8 4.8,4.8l9.7,0c1.8,0 3.4,1.5 3.4,3.4l0,8.9c0,4 1.7,7.8 4.6,10.4c2.9,2.7 6.9,4 10.9,3.6c7.1,-0.7 12.7,-7 12.7,-14.4l0,-51.2c0,-2.5 2,-4.5 4.5,-4.5s4.5,2 4.5,4.5l0,92.3c0,7.8 6.3,14.1 14.1,14.1s14.1,-6.3 14.1,-14.1l0,-115.8c0,-2.5 2,-4.5 4.5,-4.5s4.5,2 4.5,4.5l0,74.9c0,7.8 6.3,14.1 14.1,14.1s14.1,-6.3 14.1,-14.1l0,-8.9c0,-1.8 1.5,-3.4 3.4,-3.4l9.7,0c2.7,0 4.8,-2.1 4.8,-4.8c0,-2.6 -2.1,-4.7 -4.8,-4.7z" fill="#ffffff"/>
 </g>
</svg>